Coordinates
version=1
nRows=4
nColumns=63
inDegrees=yes

Units are S.I. units (second, meters, Newtons, ...)
If the header above contains a line with 'inDegrees', this indicates whether rotational values are in degrees (yes) or radians (no).

endheader
time	pelvis_tilt	pelvis_list	pelvis_rotation	pelvis_tx	pelvis_ty	pelvis_tz	hip_flexion_r	hip_adduction_r	hip_rotation_r	knee_angle_r	knee_angle_r_beta	ankle_angle_r	subtalar_angle_r	mtp_angle_r	hip_flexion_l	hip_adduction_l	hip_rotation_l	knee_angle_l	knee_angle_l_beta	ankle_angle_l	subtalar_angle_l	mtp_angle_l	L5_S1_Flex_Ext	L5_S1_Lat_Bending	L5_S1_axial_rotation	L4_L5_Flex_Ext	L4_L5_Lat_Bending	L4_L5_axial_rotation	L3_L4_Flex_Ext	L3_L4_Lat_Bending	L3_L4_axial_rotation	L2_L3_Flex_Ext	L2_L3_Lat_Bending	L2_L3_axial_rotation	L1_L2_Flex_Ext	L1_L2_Lat_Bending	L1_L2_axial_rotation	L1_T12_Flex_Ext	L1_T12_Lat_Bending	L1_T12_axial_rotation	Abs_r3	Abs_r2	Abs_r1	Abs_t1	Abs_t2	neck_flexion	neck_bending	neck_rotation	arm_flex_r	arm_add_r	arm_rot_r	elbow_flex_r	pro_sup_r	wrist_flex_r	wrist_dev_r	arm_flex_l	arm_add_l	arm_rot_l	elbow_flex_l	pro_sup_l	wrist_flex_l	wrist_dev_l
      1.20338983	      5.56516856	     -2.01389856	     90.39071999	      0.12740756	      0.79994795	      0.83003878	      7.56554443	      1.65970416	     -0.04056679	      9.50912618	      0.16596556	     29.23833872	     15.49327816	      0.00000000	      5.94425403	     -1.23872789	     14.39062079	      5.24244777	      0.09149797	     26.69646092	    -14.04861110	      0.00000000	      0.23409975	      0.27513471	      0.64564443	      0.43474664	      0.36592917	      0.68599720	      0.38460247	      0.66896254	      0.68599720	      0.26755260	      0.66896254	      0.56493887	      0.21738502	      0.56105471	      0.52458610	      0.13376459	      0.42618367	      0.48423332	      1.67215107	      3.11237891	      3.59088061	      0.00000000	      0.00000000	     12.58848835	      1.98162860	     12.75161534	     19.61314071	    -12.66764924	     67.63976150	     49.76986672	     42.12528133	      4.17288877	     21.16964227	     23.61306149	    -12.19119930	     75.18162507	     47.85288712	     79.89683629	      8.83154892	     11.14389105
      1.22033898	      5.73542394	     -2.14709598	     90.47661871	      0.12760423	      0.79954327	      0.82987090	      7.69880907	      1.84788270	     -0.14288423	      9.50906728	      0.16596453	     29.38394965	     15.53626069	      0.00000000	      6.11212565	     -1.42436567	     14.22709061	      5.38133250	      0.09392197	     26.70911130	    -13.98936125	      0.00000000	      0.22471943	      0.28739347	      0.57896048	      0.41732645	      0.38223331	      0.61514551	      0.36919155	      0.69876847	      0.61514551	      0.25683183	      0.69876847	      0.50659042	      0.20867446	      0.58605276	      0.47040539	      0.12840468	      0.44517248	      0.43422036	      1.60514839	      3.25105237	      3.22000449	      0.00000000	      0.00000000	     11.91381928	      1.87182039	     12.77381197	     19.94991523	    -12.67543916	     68.28005622	     49.87003373	     42.17626581	      4.29088652	     21.36703874	     23.79617940	    -12.49739287	     75.40859231	     48.20886483	     79.94471264	      8.84774553	     10.89841776
      1.23728814	      5.87678661	     -2.32810105	     90.86386624	      0.12712323	      0.79909470	      0.83031082	      7.83967085	      1.97763998	     -0.17274159	      9.37377954	      0.16360332	     29.46909043	     15.18103772	      0.00000000	      6.52883944	     -1.55477901	     13.47941724	      5.76649068	      0.10064425	     27.17327100	    -12.49806035	      0.00000000	      0.22647990	      0.30398356	      0.42218632	      0.42059582	      0.40429813	      0.44857297	      0.37208383	      0.73910563	      0.44857297	      0.25884388	      0.73910563	      0.36941303	      0.21030923	      0.61988328	      0.34302639	      0.12941061	      0.47087053	      0.31663974	      1.61772327	      3.43872283	      2.34807366	      0.00000000	      0.00000000	     11.25185904	      1.80303055	     13.17516056	     21.12599352	    -12.60606255	     70.68576785	     49.59822974	     42.03933952	      4.77237092	     20.96090380	     24.08581239	    -12.75355338	     76.09974738	     48.27728168	     79.15564859	      8.11385662	     10.19783320
      1.25423729	      5.88454772	     -2.46246398	     90.80286993	      0.12765195	      0.79875702	      0.83086391	      7.97301964	      2.04012093	      0.11604570	      9.25664481	      0.16155893	     29.59042699	     15.08909631	      0.00000000	      6.84415591	     -1.67717034	     11.26348435	      6.07943220	      0.10610611	     27.99601865	     -9.50700233	      0.00000000	      0.21379121	      0.29908267	      0.40248157	      0.39703166	      0.39777996	      0.42763667	      0.35123759	      0.72718961	      0.42763667	      0.24434198	      0.72718961	      0.35217138	      0.19852652	      0.60988939	      0.32701628	      0.12216030	      0.46327906	      0.30186118	      1.52708926	      3.38328302	      2.23848176	      0.00000000	      0.00000000	     10.89739831	      1.75114479	     13.18911796	     21.75129962	    -12.57861952	     71.79810231	     49.68102669	     42.04434548	      4.82248062	     20.36228255	     24.56215795	    -13.12264834	     77.21235042	     48.66604449	     76.81704114	      7.18182946	     10.26573780
